<svg width="31" height="32" viewBox="0 0 31 32" fill="none" xmlns="http://www.w3.org/2000/svg">
<path d="M28.8706 3.84049L21.3785 3.84052V1.92083C21.3785 1.38865 20.9597 0.957611 20.4428 0.957611C19.9258 0.957611 19.5071 1.38865 19.5071 1.92083V3.84004H12.0215V1.92083C12.0215 1.38865 11.6028 0.957611 11.0858 0.957611C10.5688 0.957611 10.1501 1.38865 10.1501 1.92083V3.84004H2.67108C1.6376 3.84004 0.799683 4.7026 0.799683 5.76647V29.8469C0.799683 30.9108 1.6376 31.7733 2.67108 31.7733H28.8706C29.9041 31.7733 30.742 30.9108 30.742 29.8469V5.76647C30.742 4.70305 29.9041 3.84049 28.8706 3.84049ZM28.8706 29.8469H2.67108V5.76647H10.1501V6.73692C10.1501 7.26906 10.5688 7.70013 11.0858 7.70013C11.6028 7.70013 12.0215 7.26906 12.0215 6.73692V5.76696H19.5071V6.7374C19.5071 7.26957 19.9258 7.70061 20.4428 7.70061C20.9597 7.70061 21.3785 7.26957 21.3785 6.7374V5.76696H28.8706V29.8469ZM22.3207 16.3623H24.1921C24.7086 16.3623 25.1278 15.9308 25.1278 15.3991V13.4727C25.1278 12.941 24.7086 12.5094 24.1921 12.5094H22.3207C21.8042 12.5094 21.385 12.941 21.385 13.4727V15.3991C21.385 15.9308 21.8042 16.3623 22.3207 16.3623ZM22.3207 24.0676H24.1921C24.7086 24.0676 25.1278 23.6365 25.1278 23.1044V21.1779C25.1278 20.6462 24.7086 20.2147 24.1921 20.2147H22.3207C21.8042 20.2147 21.385 20.6462 21.385 21.1779V23.1044C21.385 23.637 21.8042 24.0676 22.3207 24.0676ZM16.7065 20.2147H14.8351C14.3186 20.2147 13.8994 20.6462 13.8994 21.1779V23.1044C13.8994 23.6365 14.3186 24.0676 14.8351 24.0676H16.7065C17.223 24.0676 17.6422 23.6365 17.6422 23.1044V21.1779C17.6422 20.6467 17.223 20.2147 16.7065 20.2147ZM16.7065 12.5094H14.8351C14.3186 12.5094 13.8994 12.941 13.8994 13.4727V15.3991C13.8994 15.9308 14.3186 16.3623 14.8351 16.3623H16.7065C17.223 16.3623 17.6422 15.9308 17.6422 15.3991V13.4727C17.6422 12.9405 17.223 12.5094 16.7065 12.5094ZM9.22095 12.5094H7.34956C6.83306 12.5094 6.41386 12.941 6.41386 13.4727V15.3991C6.41386 15.9308 6.83306 16.3623 7.34956 16.3623H9.22095C9.73746 16.3623 10.1567 15.9308 10.1567 15.3991V13.4727C10.1567 12.9405 9.73746 12.5094 9.22095 12.5094ZM9.22095 20.2147H7.34956C6.83306 20.2147 6.41386 20.6462 6.41386 21.1779V23.1044C6.41386 23.6365 6.83306 24.0676 7.34956 24.0676H9.22095C9.73746 24.0676 10.1567 23.6365 10.1567 23.1044V21.1779C10.1567 20.6467 9.73746 20.2147 9.22095 20.2147Z" fill="#959595"/>
</svg>
