<svg width="31" height="32" viewBox="0 0 31 32" fill="none" xmlns="http://www.w3.org/2000/svg">
<path d="M28.8706 3.56533L21.3785 3.56536V1.64567C21.3785 1.11349 20.9597 0.682449 20.4428 0.682449C19.9258 0.682449 19.5071 1.11349 19.5071 1.64567V3.56488H12.0215V1.64567C12.0215 1.11349 11.6028 0.682449 11.0858 0.682449C10.5688 0.682449 10.1501 1.11349 10.1501 1.64567V3.56488H2.67108C1.6376 3.56488 0.799683 4.42744 0.799683 5.49131V29.5717C0.799683 30.6356 1.6376 31.4982 2.67108 31.4982H28.8706C29.9041 31.4982 30.742 30.6356 30.742 29.5717V5.49131C30.742 4.42789 29.9041 3.56533 28.8706 3.56533ZM28.8706 29.5717H2.67108V5.49131H10.1501V6.46175C10.1501 6.9939 10.5688 7.42497 11.0858 7.42497C11.6028 7.42497 12.0215 6.9939 12.0215 6.46175V5.49179H19.5071V6.46223C19.5071 6.99441 19.9258 7.42545 20.4428 7.42545C20.9597 7.42545 21.3785 6.99441 21.3785 6.46223V5.49179H28.8706V29.5717ZM22.3207 16.0872H24.1921C24.7086 16.0872 25.1278 15.6556 25.1278 15.1239V13.1975C25.1278 12.6658 24.7086 12.2343 24.1921 12.2343H22.3207C21.8042 12.2343 21.385 12.6658 21.385 13.1975V15.1239C21.385 15.6556 21.8042 16.0872 22.3207 16.0872ZM22.3207 23.7924H24.1921C24.7086 23.7924 25.1278 23.3614 25.1278 22.8292V20.9028C25.1278 20.3711 24.7086 19.9395 24.1921 19.9395H22.3207C21.8042 19.9395 21.385 20.3711 21.385 20.9028V22.8292C21.385 23.3619 21.8042 23.7924 22.3207 23.7924ZM16.7065 19.9395H14.8351C14.3186 19.9395 13.8994 20.3711 13.8994 20.9028V22.8292C13.8994 23.3614 14.3186 23.7924 14.8351 23.7924H16.7065C17.223 23.7924 17.6422 23.3614 17.6422 22.8292V20.9028C17.6422 20.3715 17.223 19.9395 16.7065 19.9395ZM16.7065 12.2343H14.8351C14.3186 12.2343 13.8994 12.6658 13.8994 13.1975V15.1239C13.8994 15.6556 14.3186 16.0872 14.8351 16.0872H16.7065C17.223 16.0872 17.6422 15.6556 17.6422 15.1239V13.1975C17.6422 12.6653 17.223 12.2343 16.7065 12.2343ZM9.22095 12.2343H7.34956C6.83306 12.2343 6.41386 12.6658 6.41386 13.1975V15.1239C6.41386 15.6556 6.83306 16.0872 7.34956 16.0872H9.22095C9.73746 16.0872 10.1567 15.6556 10.1567 15.1239V13.1975C10.1567 12.6653 9.73746 12.2343 9.22095 12.2343ZM9.22095 19.9395H7.34956C6.83306 19.9395 6.41386 20.3711 6.41386 20.9028V22.8292C6.41386 23.3614 6.83306 23.7924 7.34956 23.7924H9.22095C9.73746 23.7924 10.1567 23.3614 10.1567 22.8292V20.9028C10.1567 20.3715 9.73746 19.9395 9.22095 19.9395Z" fill="#343434"/>
</svg>
